<svg width="1044" height="412" viewBox="0 0 1044 412" fill="none" xmlns="http://www.w3.org/2000/svg">
<path d="M835.058 135.457V179.957C835.123 183.777 836.691 187.416 839.421 190.088C842.152 192.76 845.825 194.249 849.645 194.232H1009.19C1011.11 194.236 1013.01 193.862 1014.78 193.131C1016.56 192.401 1018.17 191.328 1019.52 189.974C1020.88 188.621 1021.96 187.013 1022.69 185.242C1023.43 183.472 1023.81 181.574 1023.81 179.657V142.038L1043.67 121.166L849.664 120.56C847.723 120.567 845.802 120.959 844.014 121.713C842.226 122.468 840.605 123.571 839.246 124.957C837.887 126.343 836.818 127.985 836.099 129.788C835.38 131.591 835.026 133.519 835.059 135.46L835.058 135.457Z" fill="#F5F5F5"/>
<path d="M1000.24 147.529L855.417 146.863L855.427 142.412L1000.26 143.078L1000.24 147.529Z" fill="#E0E0E0"/>
<path d="M1000.24 162.175L855.417 161.509L855.427 157.058L1000.26 157.724L1000.24 162.175Z" fill="#E0E0E0"/>
<path d="M942.942 171.71L942.92 176.161L1000.22 176.441L1000.24 171.99L942.942 171.71Z" fill="#E0E0E0"/>
<path d="M325.005 392.331C347.322 376.736 352.379 347.798 351.505 321.777C351.354 317.437 351.828 312.854 349.769 309.049C347.71 305.244 342.885 302.63 338.989 304.466C335.769 305.98 334.366 309.735 332.559 312.834C330.149 316.973 326.619 320.346 322.375 322.564C319.609 323.997 316.188 324.875 313.462 323.371C309.707 321.302 309.273 316.124 309.293 311.804L309.444 287.66C309.444 283.34 309.444 278.929 308.144 274.831C306.844 270.733 303.834 266.931 299.726 265.747C295.618 264.563 290.541 266.958 289.632 271.187C289.269 272.943 289.632 274.77 289.501 276.567C289.37 278.364 288.552 280.342 286.846 280.847C285.14 281.352 283.394 280.13 282.102 278.828C277.641 274.468 274.623 268.856 271.796 263.264C268.969 257.672 266.224 251.964 262.177 247.205C258.13 242.446 252.538 238.676 246.35 238.323C240.162 237.97 233.572 241.795 232.017 247.872C230.462 253.949 234.036 260.136 237.861 265.031C243.592 272.357 250.353 278.816 257.933 284.208C259.296 285.217 260.769 286.227 261.294 287.808C262.223 290.695 259.494 293.551 256.661 294.5C253.441 295.57 249.939 295.237 246.567 295.63C243.195 296.023 239.501 297.518 238.28 300.677C236.504 305.088 240.198 309.761 243.831 312.789C251.11 318.865 259.38 323.645 268.278 326.92C271.447 328.081 274.798 329.1 277.362 331.331C279.926 333.562 281.47 337.448 279.926 340.486C278.382 343.524 274.405 344.523 271.074 343.886C267.743 343.249 264.774 341.464 261.596 340.272C255.661 338.031 247.996 338.435 244.196 343.572C241.703 346.943 241.481 351.647 242.743 355.684C244.005 359.721 246.568 363.163 249.294 366.353C258.802 377.517 270.985 386.54 284.753 391.274C298.521 396.008 311.279 397.33 324.966 392.344" fill="#F5F5F5"/>
<path d="M325.338 411.61C324.128 399.548 321.762 387.63 318.272 376.02C313.957 361.847 308.828 347.936 302.91 334.354C301.369 330.727 299.842 327.154 298.327 323.635C296.813 320.122 295.299 316.64 293.633 313.319C290.401 306.959 286.819 300.783 282.904 294.819C279.204 289.096 275.485 283.797 271.963 278.871C268.441 273.945 265.069 269.433 261.869 265.436C256.773 259.109 251.181 253.199 245.146 247.76C243.016 245.832 241.31 244.389 240.099 243.43L238.736 242.33C238.593 242.201 238.438 242.086 238.272 241.987C238.399 242.131 238.537 242.265 238.686 242.387L239.968 243.538C241.098 244.547 242.774 246.011 244.868 247.969C250.806 253.483 256.322 259.434 261.368 265.774C264.578 269.811 267.926 274.3 271.411 279.239C274.903 284.175 278.598 289.474 282.272 295.197C286.159 301.152 289.718 307.314 292.931 313.658C294.596 316.958 296.08 320.411 297.594 323.933L302.176 334.642C308.078 348.199 313.218 362.076 317.569 376.207C321.073 387.769 323.483 399.634 324.769 411.646" fill="#E0E0E0"/>
<path d="M293.412 313.288C293.625 312.694 293.767 312.078 293.836 311.451C294.068 310.26 294.331 308.514 294.636 306.404C295.252 302.104 295.888 296.139 296.574 289.558C297.26 282.977 297.974 277.032 298.653 272.752C298.986 270.612 299.269 268.886 299.481 267.705C299.631 267.094 299.712 266.467 299.723 265.838C299.476 266.419 299.293 267.025 299.178 267.645C298.878 268.816 298.502 270.545 298.098 272.692C297.28 276.962 296.463 282.917 295.787 289.518L294.081 306.374C293.869 308.393 293.681 310.109 293.536 311.481C293.433 312.077 293.391 312.683 293.412 313.288Z" fill="#E0E0E0"/>
<path d="M237.886 302.887C238.611 303.05 239.352 303.138 240.096 303.149C241.519 303.28 243.588 303.449 246.152 303.749C251.199 304.304 258.264 305.303 265.915 306.777C273.566 308.251 280.48 309.856 285.426 311.168C287.899 311.814 289.897 312.379 291.28 312.768C291.983 313.007 292.706 313.183 293.44 313.293C292.793 312.956 292.118 312.679 291.421 312.465C290.058 311.991 288.09 311.334 285.621 310.618C280.705 309.165 273.811 307.449 266.11 305.985C259.547 304.719 252.924 303.792 246.266 303.209C243.712 302.987 241.633 302.896 240.21 302.876C239.437 302.804 238.66 302.807 237.888 302.886L237.886 302.887Z" fill="#E0E0E0"/>
<path d="M317.607 375C317.758 374.791 317.884 374.564 317.98 374.324C318.242 373.779 318.555 373.113 318.929 372.305C319.747 370.549 320.867 367.995 322.199 364.805C324.884 358.446 328.306 349.543 331.949 339.672C335.592 329.801 338.934 320.872 341.477 314.438L344.505 306.858C344.828 306.03 345.09 305.344 345.313 304.839C345.431 304.605 345.51 304.352 345.545 304.092C345.393 304.304 345.267 304.535 345.172 304.778C344.91 305.313 344.597 305.978 344.223 306.797C343.405 308.553 342.285 311.107 340.953 314.297C338.268 320.656 334.846 329.559 331.203 339.44C327.56 349.321 324.218 358.234 321.675 364.674C320.423 367.793 319.404 370.357 318.647 372.254C318.324 373.082 318.062 373.768 317.84 374.323C317.73 374.536 317.652 374.763 317.608 374.999L317.607 375Z" fill="#E0E0E0"/>
<path d="M243.783 351.221C244.016 351.347 244.264 351.445 244.52 351.514L246.66 352.241L254.56 354.795C261.232 356.965 270.407 360.054 280.551 363.486C290.695 366.918 299.911 369.936 306.633 371.965C309.984 372.974 312.689 373.772 314.607 374.276L316.797 374.851C317.049 374.93 317.31 374.981 317.574 375.002C317.342 374.871 317.094 374.77 316.837 374.702L314.697 373.985L306.797 371.421C300.125 369.261 290.94 366.162 280.806 362.73C270.672 359.298 261.446 356.28 254.724 354.251C251.373 353.242 248.668 352.444 246.75 351.94L244.59 351.34C244.329 351.259 244.056 351.219 243.783 351.221Z" fill="#E0E0E0"/>
<path d="M162.493 96.4V130.89C162.493 133.886 161.303 136.76 159.185 138.879C157.067 140.998 154.194 142.189 151.198 142.19H27.5318C24.5357 142.189 21.6628 140.998 19.5447 138.879C17.4266 136.76 16.2368 133.886 16.2368 130.89V101.75L0.84375 85.6L151.168 85.085C152.655 85.081 154.129 85.371 155.504 85.9381C156.879 86.5052 158.129 87.3383 159.181 88.3897C160.233 89.441 161.068 90.6899 161.636 92.0645C162.204 93.4391 162.495 94.9125 162.493 96.4Z" fill="#E0E0E0"/>
<path d="M34.4646 106.009L146.676 105.484L146.666 102.042L34.4546 102.557L34.4646 106.009Z" fill="#FAFAFA"/>
<path d="M34.4646 117.355L146.676 116.83L146.666 113.388L34.4546 113.905L34.4646 117.355Z" fill="#FAFAFA"/>
<path d="M78.8424 124.752L34.4409 124.969L34.4578 128.421L78.8593 128.204L78.8424 124.752Z" fill="#FAFAFA"/>
<path d="M364.9 152.211V393.089C364.9 398.512 369.297 402.908 374.719 402.908H728.948C734.371 402.908 738.767 398.512 738.767 393.089V152.211C738.767 146.788 734.371 142.392 728.948 142.392H374.719C369.297 142.392 364.9 146.788 364.9 152.211Z" fill="#263238"/>
<path d="M390.478 150.608V394.702H702.703V150.608L390.478 150.608Z" fill="white"/>
<path d="M729.741 274.971C731.004 269.599 727.672 264.219 722.3 262.956C716.927 261.693 711.548 265.025 710.285 270.397C709.022 275.77 712.353 281.149 717.726 282.412C723.098 283.675 728.478 280.344 729.741 274.971Z" fill="#455A64"/>
<path d="M375.66 234.463V310.857C375.66 311.43 376.124 311.894 376.697 311.894H378.751C379.324 311.894 379.788 311.43 379.788 310.857V234.463C379.788 233.89 379.324 233.426 378.751 233.426H376.697C376.124 233.426 375.66 233.89 375.66 234.463Z" fill="#455A64"/>
<path d="M479.026 293.845C486.688 282.213 483.469 266.572 471.837 258.91C460.205 251.248 444.563 254.467 436.902 266.099C429.24 277.731 432.458 293.372 444.09 301.034C455.723 308.696 471.364 305.477 479.026 293.845Z" fill="#6F3C96"/>
<path opacity="0.3" d="M479.026 293.845C486.688 282.213 483.469 266.572 471.837 258.91C460.205 251.248 444.563 254.467 436.902 266.099C429.24 277.731 432.458 293.372 444.09 301.034C455.723 308.696 471.364 305.477 479.026 293.845Z" fill="white"/>
<path d="M449.233 273.629C450.182 273.548 451.05 274.638 451.171 275.991C451.292 277.344 450.596 278.545 449.637 278.625C448.678 278.705 447.82 277.616 447.709 276.273C447.598 274.93 448.315 273.71 449.233 273.629Z" fill="#263238"/>
<path d="M465.301 273.296C464.352 273.296 463.525 274.305 463.464 275.739C463.403 277.173 464.14 278.273 465.099 278.313C466.058 278.353 466.886 277.304 466.936 275.88C466.986 274.456 466.259 273.336 465.301 273.296Z" fill="#263238"/>
<path d="M468.057 284.994C468.057 285.287 463.357 285.529 457.557 285.529C451.757 285.529 447.05 285.287 447.05 284.994C447.05 284.701 451.75 284.449 457.557 284.449C463.364 284.449 468.057 284.681 468.057 284.994Z" fill="#263238"/>
<path d="M451.251 270.732C451.19 271.032 449.989 271.025 448.586 271.247C447.183 271.469 446.042 271.832 445.886 271.57C445.73 271.308 446.794 270.44 448.42 270.187C450.046 269.934 451.251 270.45 451.251 270.732Z" fill="#263238"/>
<path d="M469.854 271.954C469.672 272.196 468.582 271.631 467.179 271.207C465.776 270.783 464.565 270.632 464.534 270.319C464.503 270.006 465.876 269.673 467.491 270.178C469.106 270.683 470.045 271.742 469.854 271.954Z" fill="#263238"/>
<path d="M666.417 281.994C668.684 267.73 658.958 254.328 644.693 252.062C630.429 249.795 617.027 259.521 614.761 273.786C612.494 288.05 622.22 301.451 636.485 303.718C650.749 305.985 664.15 296.259 666.417 281.994Z" fill="#6F3C96"/>
<path opacity="0.3" d="M666.417 281.994C668.684 267.73 658.958 254.328 644.693 252.062C630.429 249.795 617.027 259.521 614.761 273.786C612.494 288.05 622.22 301.451 636.485 303.718C650.749 305.985 664.15 296.259 666.417 281.994Z" fill="black"/>
<path d="M631.553 271.308C632.562 271.227 633.453 272.317 633.572 273.751C633.691 275.185 632.987 276.406 631.997 276.486C631.007 276.566 630.097 275.477 629.978 274.043C629.859 272.609 630.564 271.389 631.553 271.308Z" fill="#263238"/>
<path d="M648.177 270.964C647.168 270.964 646.33 272.054 646.269 273.487C646.208 274.92 646.976 276.111 647.969 276.152C648.962 276.193 649.816 275.062 649.877 273.629C649.938 272.196 649.177 271.005 648.177 270.964Z" fill="#263238"/>
<path d="M651.034 283.076C650.923 283.217 649.834 282.44 648.006 281.481C645.603 280.226 642.934 279.568 640.224 279.563C637.511 279.683 634.854 280.371 632.424 281.582C630.524 282.511 629.396 283.217 629.305 283.076C629.214 282.935 630.205 282.067 632.071 280.916C634.532 279.428 637.331 278.59 640.206 278.483C643.096 278.475 645.93 279.283 648.382 280.815C650.186 281.966 651.101 282.975 651.034 283.076Z" fill="#263238"/>
<path d="M633.551 268.3C633.642 268.411 633.47 268.744 633.036 269.118C632.467 269.631 631.769 269.98 631.017 270.127C630.252 270.273 629.461 270.185 628.746 269.875C628.211 269.633 627.969 269.35 628.029 269.219C628.089 269.088 629.392 269.35 630.829 269.068C632.266 268.786 633.36 268.057 633.551 268.3Z" fill="#263238"/>
<path d="M652.901 269.571C652.901 269.702 652.659 269.955 652.073 270.136C651.303 270.354 650.484 270.326 649.731 270.055C648.992 269.795 648.329 269.354 647.803 268.773C647.419 268.329 647.278 267.973 647.379 267.873C647.48 267.773 648.661 268.539 650.074 269.034C651.487 269.529 652.8 269.268 652.901 269.571Z" fill="#263238"/>
<path d="M590.472 350.469L596.528 347.461L602.428 350.752L601.449 344.07L606.395 339.47L599.733 338.329L596.887 332.202L593.748 338.188L587.036 339.006L591.77 343.841L590.472 350.469Z" fill="#E0E0E0"/>
<path d="M565.763 350.469L571.819 347.461L577.719 350.752L576.74 344.07L581.686 339.47L575.024 338.329L572.178 332.202L569.039 338.188L562.327 339.006L567.061 343.841L565.763 350.469Z" fill="#6F3C96"/>
<path d="M541.055 350.469L547.111 347.461L553.011 350.752L552.032 344.07L556.978 339.47L550.317 338.329L547.471 332.202L544.332 338.188L537.62 339.006L542.354 343.841L541.055 350.469Z" fill="#6F3C96"/>
<path d="M516.344 350.469L522.4 347.461L528.3 350.752L527.321 344.07L532.267 339.47L525.605 338.329L522.759 332.202L519.62 338.188L512.908 339.006L517.642 343.841L516.344 350.469Z" fill="#6F3C96"/>
<path d="M491.636 350.469L497.692 347.461L503.592 350.752L502.621 344.069L507.567 339.469L500.905 338.328L498.059 332.201L494.92 338.187L488.208 339.005L492.942 343.84L491.636 350.469Z" fill="#6F3C96"/>
<path d="M606.692 201.732C606.692 201.883 579.581 202.005 546.13 202.005C512.679 202.005 485.568 201.884 485.568 201.732C485.568 201.58 512.668 201.47 546.13 201.47C579.592 201.47 606.692 201.591 606.692 201.732Z" fill="#263238"/>
<path d="M576.916 194.465C576.916 194.616 563.532 194.738 547.016 194.738C530.5 194.738 517.109 194.617 517.109 194.465C517.109 194.313 530.493 194.192 547.016 194.192C563.539 194.192 576.916 194.313 576.916 194.465Z" fill="#263238"/>
<path d="M584.103 282.473C589.937 264.369 579.99 244.965 561.886 239.131C543.783 233.298 524.378 243.245 518.545 261.348C512.711 279.452 522.658 298.857 540.762 304.69C558.865 310.523 578.27 300.576 584.103 282.473Z" fill="#6F3C96"/>
<path d="M539.428 263.192C540.728 263.092 541.911 264.524 542.073 266.412C542.235 268.3 541.296 269.904 539.994 270.012C538.692 270.12 537.501 268.68 537.349 266.802C537.197 264.924 538.126 263.308 539.428 263.192Z" fill="#263238"/>
<path d="M561.323 262.788C560.023 262.727 558.89 264.221 558.823 266.109C558.756 267.997 559.742 269.571 561.044 269.622C562.346 269.673 563.477 268.189 563.557 266.301C563.637 264.413 562.635 262.788 561.323 262.788Z" fill="#263238"/>
<path d="M565.076 274.043C565.137 274.104 564.854 274.457 564.299 275.052C563.509 275.904 562.644 276.685 561.715 277.384C560.323 278.426 558.791 279.265 557.163 279.877C555.146 280.634 552.997 280.977 550.844 280.886C548.707 280.772 546.607 280.287 544.636 279.453C543.038 278.806 541.507 278.005 540.064 277.061C537.621 275.426 536.329 274.154 536.4 274.033C537.791 274.734 539.139 275.516 540.437 276.375C541.89 277.202 543.405 277.914 544.969 278.505C546.856 279.239 548.848 279.672 550.869 279.787C552.884 279.872 554.896 279.581 556.804 278.929C558.37 278.384 559.865 277.652 561.255 276.749C562.426 275.942 563.375 275.265 563.99 274.73C564.605 274.195 565.026 273.993 565.076 274.043Z" fill="#263238"/>
<path d="M540.983 255.451C540.922 255.751 539.277 255.643 537.319 255.951C535.361 256.259 533.827 256.859 533.675 256.587C533.523 256.315 534.975 255.224 537.157 254.887C539.339 254.55 541.084 255.168 540.983 255.451Z" fill="#263238"/>
<path d="M568.711 257.055C568.519 257.297 567.066 256.429 565.111 255.844C563.156 255.259 561.467 255.137 561.457 254.835C561.447 254.533 563.264 254.149 565.434 254.835C567.604 255.521 568.899 256.843 568.711 257.055Z" fill="#263238"/>
<path d="M536.966 271.57C537.097 271.57 537.319 271.903 537.35 272.579C537.366 273.433 537.104 274.269 536.603 274.961C536.114 275.668 535.404 276.193 534.584 276.455C533.958 276.637 533.575 276.546 533.524 276.455C533.524 276.155 534.796 275.708 535.704 274.376C536.612 273.044 536.663 271.621 536.966 271.57Z" fill="#263238"/>
<path d="M567.995 274.74C567.995 274.871 567.733 275.083 567.195 275.124C566.49 275.149 565.797 274.934 565.231 274.514C564.664 274.094 564.257 273.494 564.076 272.813C563.965 272.288 564.076 271.955 564.217 271.945C564.517 271.945 564.863 272.954 565.872 273.651C566.881 274.348 567.924 274.437 567.995 274.74Z" fill="#263238"/>
<path d="M593.419 271.57C593.413 271.336 593.392 271.102 593.358 270.87L593.227 268.851C593.227 268.407 593.177 267.902 593.146 267.357C593.115 266.812 592.964 266.216 592.874 265.57C592.784 264.924 592.662 264.228 592.541 263.491C592.397 262.701 592.211 261.92 591.986 261.149C590.987 257.149 589.387 253.324 587.242 249.804C584.444 245.108 580.767 240.996 576.412 237.692L574.565 236.329C573.919 235.905 573.243 235.511 572.546 235.098C571.877 234.659 571.182 234.259 570.467 233.898L568.257 232.838L567.137 232.303L565.956 231.879L563.556 231.001C562.748 230.728 561.89 230.557 561.056 230.335C560.212 230.083 559.353 229.888 558.482 229.75C556.706 229.418 554.908 229.209 553.102 229.124C552.184 229.124 551.255 229.003 550.326 229.024L547.51 229.165C547.034 229.15 546.558 229.18 546.087 229.256L544.664 229.478C543.725 229.629 542.756 229.74 541.807 229.942C539.881 230.367 537.985 230.923 536.134 231.607C534.231 232.291 532.376 233.104 530.582 234.04C529.682 234.535 528.826 235.1 527.937 235.625C527.503 235.908 527.037 236.14 526.625 236.453L525.373 237.392C523.678 238.652 522.066 240.022 520.548 241.492L518.388 243.874L517.843 244.48L517.348 245.126L516.339 246.426L515.33 247.726L514.472 249.126L513.614 250.539L513.19 251.246L512.827 251.983L511.384 255.011L510.233 258.16C507.306 266.867 507.306 276.292 510.233 284.999C510.627 286.008 511.01 287.099 511.394 288.148C511.778 289.197 512.353 290.167 512.837 291.176L513.2 291.923L513.624 292.63L514.482 294.03L515.34 295.43L516.349 296.742L517.358 298.042L517.843 298.688L518.388 299.288L520.548 301.67C522.066 303.143 523.677 304.515 525.373 305.778L526.635 306.707C527.049 307.03 527.513 307.262 527.947 307.545C528.835 308.07 529.693 308.635 530.592 309.13C534.144 310.968 537.916 312.346 541.816 313.23C542.765 313.43 543.734 313.543 544.683 313.694L546.096 313.916C546.57 313.977 547.045 313.977 547.519 314.007L550.335 314.148C551.264 314.148 552.192 314.077 553.111 314.048C554.917 313.964 556.715 313.754 558.491 313.422C559.361 313.279 560.22 313.084 561.065 312.837C561.913 312.615 562.765 312.437 563.578 312.171L565.97 311.293L567.151 310.869L568.271 310.334L570.481 309.274C571.195 308.91 571.889 308.509 572.56 308.074C573.236 307.66 573.923 307.267 574.579 306.843L576.416 305.47C580.775 302.166 584.455 298.054 587.257 293.358C589.402 289.818 590.998 285.975 591.991 281.958C592.216 281.191 592.401 280.412 592.546 279.626C592.667 278.889 592.778 278.193 592.879 277.547C592.98 276.901 593.091 276.305 593.151 275.76C593.211 275.215 593.212 274.751 593.232 274.266C593.293 273.388 593.332 272.712 593.363 272.247C593.394 271.782 593.424 271.547 593.424 271.547V272.247C593.424 272.711 593.373 273.398 593.343 274.266C593.352 274.767 593.332 275.268 593.282 275.766C593.221 276.261 593.121 276.917 593.04 277.566C592.959 278.215 592.84 278.919 592.727 279.666C592.588 280.455 592.41 281.237 592.192 282.008C591.233 286.051 589.656 289.921 587.519 293.485C584.722 298.225 581.034 302.379 576.658 305.718L574.801 307.111C574.155 307.545 573.469 307.939 572.782 308.363C572.11 308.813 571.409 309.218 570.682 309.574L568.461 310.654L567.331 311.229L566.14 311.663L563.728 312.551C562.9 312.834 562.042 313.005 561.194 313.237C560.341 313.491 559.473 313.693 558.594 313.843C556.798 314.179 554.98 314.392 553.154 314.479C552.235 314.479 551.297 314.61 550.354 314.6L547.508 314.459C547.026 314.475 546.542 314.445 546.065 314.368L544.632 314.146C543.673 313.995 542.694 313.884 541.732 313.682C539.784 313.247 537.866 312.688 535.989 312.006C534.066 311.315 532.191 310.495 530.377 309.553C529.458 309.058 528.59 308.483 527.692 307.953C527.233 307.699 526.788 307.419 526.36 307.115L525.088 306.166C523.37 304.896 521.738 303.514 520.203 302.028L518.013 299.616L517.458 299.01L516.963 298.354L515.954 297.042L514.945 295.71L514.077 294.297L513.209 292.874L512.775 292.157L512.412 291.4L510.948 288.372C510.554 287.312 510.171 286.242 509.777 285.182C506.817 276.366 506.817 266.825 509.777 258.01L510.948 254.82L512.412 251.792L512.786 251.035L513.22 250.318L514.088 248.895L514.956 247.482L515.965 246.16L516.974 244.838L517.469 244.182L518.014 243.576C518.751 242.776 519.478 241.976 520.204 241.176C521.742 239.689 523.373 238.304 525.089 237.028L526.361 236.079C526.785 235.766 527.249 235.524 527.693 235.241C528.593 234.716 529.47 234.141 530.378 233.646C532.192 232.704 534.067 231.884 535.99 231.193C537.867 230.511 539.785 229.951 541.733 229.517C542.692 229.317 543.671 229.204 544.633 229.053L546.066 228.831C546.54 228.77 547.025 228.77 547.499 228.74L550.345 228.599C551.294 228.599 552.222 228.68 553.151 228.72C554.977 228.807 556.795 229.019 558.591 229.356C559.468 229.509 560.336 229.71 561.191 229.956C562.039 230.198 562.897 230.37 563.714 230.642L566.136 231.53L567.327 231.974L568.457 232.519L570.688 233.589C571.435 233.932 572.088 234.417 572.777 234.81C573.466 235.203 574.15 235.628 574.796 236.062L576.653 237.455C581.027 240.788 584.715 244.935 587.514 249.668C589.651 253.222 591.23 257.082 592.197 261.114C592.379 261.952 592.651 262.714 592.732 263.466C592.813 264.218 592.944 264.909 593.045 265.566C593.146 266.223 593.237 266.808 593.287 267.366C593.337 267.924 593.287 268.375 593.348 268.86C593.348 269.748 593.409 270.424 593.429 270.879C593.443 271.109 593.44 271.34 593.419 271.57Z" fill="#6F3C96"/>
<path d="M702.703 150.608H390.478V166.182H702.703V150.608Z" fill="#E0E0E0"/>
<path d="M400.551 157.967C400.551 158.384 400.427 158.792 400.195 159.139C399.963 159.486 399.634 159.757 399.248 159.916C398.862 160.076 398.438 160.118 398.029 160.036C397.62 159.955 397.244 159.754 396.949 159.459C396.653 159.164 396.453 158.788 396.371 158.379C396.29 157.969 396.331 157.545 396.491 157.159C396.651 156.774 396.921 156.444 397.268 156.213C397.615 155.981 398.023 155.857 398.441 155.857C399 155.857 399.537 156.079 399.933 156.475C400.328 156.871 400.551 157.407 400.551 157.967Z" fill="white"/>
<path d="M407.555 157.967C407.555 158.384 407.432 158.792 407.2 159.139C406.968 159.486 406.638 159.757 406.253 159.916C405.867 160.076 405.443 160.118 405.034 160.036C404.624 159.955 404.249 159.754 403.953 159.459C403.658 159.164 403.457 158.788 403.376 158.379C403.295 157.969 403.336 157.545 403.496 157.159C403.656 156.774 403.926 156.444 404.273 156.213C404.62 155.981 405.028 155.857 405.445 155.857C405.723 155.857 405.997 155.912 406.253 156.018C406.509 156.124 406.742 156.279 406.937 156.475C407.133 156.671 407.289 156.903 407.395 157.159C407.501 157.415 407.555 157.69 407.555 157.967Z" fill="white"/>
<path d="M414.571 157.967C414.571 158.384 414.447 158.792 414.215 159.139C413.983 159.486 413.654 159.757 413.268 159.916C412.883 160.076 412.458 160.118 412.049 160.036C411.64 159.955 411.264 159.754 410.969 159.459C410.673 159.164 410.473 158.788 410.391 158.379C410.31 157.969 410.352 157.545 410.511 157.159C410.671 156.774 410.941 156.444 411.288 156.213C411.635 155.981 412.043 155.857 412.461 155.857C413.02 155.857 413.557 156.079 413.953 156.475C414.348 156.871 414.571 157.407 414.571 157.967Z" fill="white"/>
<path d="M668.263 214.016C668.263 214.167 614.091 214.289 547.271 214.289C480.451 214.289 426.271 214.168 426.271 214.016C426.271 213.864 480.443 213.754 547.271 213.754C614.099 213.754 668.263 213.875 668.263 214.016Z" fill="#E0E0E0"/>
<path d="M668.263 220.022C668.263 220.163 614.091 220.284 547.271 220.284C480.451 220.284 426.271 220.163 426.271 220.022C426.271 219.881 480.443 219.749 547.271 219.749C614.099 219.749 668.263 219.871 668.263 220.022Z" fill="#E0E0E0"/>
<path d="M509.492 144.038C509.492 144.038 507.362 139.203 506.958 138.143C505.878 135.243 498.883 115.836 500.569 112.909C508.311 99.3088 514.316 89.6938 529.588 89.6938L556.568 89.5118C556.568 89.5118 582.125 84.3038 600.142 142.443L509.492 144.038Z" fill="#455A64"/>
<path d="M452.583 148.903L487.911 141.292L529.436 119.46L529.587 89.654C523.359 87.938 511.419 92.254 489.97 103.19L458.084 119.653C455.531 120.969 453.312 122.85 451.596 125.154C449.88 127.457 448.712 130.122 448.182 132.945C447.652 135.768 447.772 138.674 448.535 141.443C449.298 144.212 450.683 146.771 452.584 148.924L452.583 148.903Z" fill="#455A64"/>
<path d="M532.081 206.598C531.566 204.922 531.92 203.842 534.362 204.67C539.752 206.477 544.562 205.881 545.737 204.842C546.912 203.803 545.837 201.814 544.082 201.965C542.164 201.96 540.255 201.695 538.409 201.178C536.909 200.821 535.48 200.217 534.18 199.391C533.05 198.674 532.08 197.998 531.223 197.372C531.223 197.372 526.247 193.779 524.692 190.892L507.644 198.192L510.389 206.731C510.715 208.228 511.414 209.618 512.422 210.772C513.429 211.926 514.712 212.806 516.152 213.331C521.027 214.916 528.779 214.34 528.779 214.34C530.202 213.411 535.679 221.345 537.348 224.14C539.017 226.935 540.982 227.289 541.628 225.583C542.062 224.412 537.187 215.722 535.491 212.983C534.122 210.978 532.978 208.829 532.079 206.574" fill="#B77153"/>
<path d="M520.534 214.34C520.534 214.401 520.11 214.34 519.525 214.098C518.768 213.713 518.145 213.108 517.738 212.362C517.321 211.622 517.128 210.777 517.183 209.929C517.244 209.283 517.445 208.92 517.506 208.92C517.43 210.016 517.676 211.11 518.214 212.068C518.752 213.025 519.559 213.805 520.534 214.31V214.34Z" fill="#995037"/>
<path d="M525.944 214.592C525.944 214.653 525.544 214.592 524.995 214.319C524.288 213.922 523.71 213.33 523.33 212.613C522.94 211.9 522.758 211.092 522.805 210.281C522.866 209.665 523.037 209.272 523.105 209.342C523.137 210.388 523.375 211.416 523.805 212.37C524.372 213.239 525.098 213.993 525.945 214.591L525.944 214.592Z" fill="#995037"/>
<path d="M451.573 147.722C451.573 147.722 505.695 209.922 505.624 208.889C505.553 207.856 529.849 189.711 529.849 189.711L476.827 126.525L451.573 147.722Z" fill="#455A64"/>
<path d="M484.398 135.528C484.534 135.641 484.662 135.762 484.782 135.891L485.791 137.021L489.425 141.221C492.453 144.774 496.662 149.721 501.265 155.201C505.868 160.681 510.016 165.668 512.994 169.332L516.494 173.642L517.433 174.833C517.633 175.106 517.746 175.257 517.726 175.267C517.587 175.162 517.461 175.04 517.352 174.904L516.342 173.77C515.423 172.761 514.202 171.297 512.708 169.57C509.68 166.017 505.461 161.07 500.858 155.59C496.255 150.11 492.117 145.123 489.129 141.459L485.629 137.149C485.256 136.675 484.943 136.281 484.7 135.958C484.584 135.826 484.483 135.68 484.4 135.524L484.398 135.528Z" fill="#263238"/>
<path d="M580.136 142.675C580.502 141.358 580.719 140.004 580.782 138.638C580.816 137.021 580.52 135.413 579.913 133.914C579.305 132.415 578.399 131.055 577.249 129.917C575.937 128.534 574.524 127.343 573.383 126.092C572.339 125.002 571.516 123.72 570.961 122.317C570.581 121.356 570.429 120.319 570.517 119.289C570.538 118.914 570.634 118.546 570.8 118.209C570.62 119.543 570.797 120.902 571.315 122.145C571.906 123.475 572.73 124.688 573.748 125.728C574.878 126.928 576.292 128.1 577.634 129.513C578.944 130.829 579.941 132.422 580.551 134.176C581.035 135.604 581.244 137.111 581.167 138.617C581.121 139.629 580.927 140.629 580.592 141.585C580.502 141.971 580.349 142.339 580.138 142.675H580.136Z" fill="#263238"/>
<path d="M507.14 94.831C507.14 94.831 507.413 94.69 507.927 94.458C508.691 94.1323 509.473 93.8492 510.269 93.61C511.532 93.2207 512.831 92.9564 514.146 92.821C515.903 92.63 517.682 92.7946 519.375 93.305C521.426 93.9572 523.268 95.1414 524.714 96.737C526.356 98.6033 527.477 100.87 527.964 103.308C528.574 105.954 528.748 108.681 528.479 111.383C528.156 114.286 527.113 117.062 525.446 119.46C523.686 121.78 521.488 123.731 518.976 125.203C516.604 126.697 514.222 127.908 511.961 129.103L499.946 135.421L491.871 139.63L489.65 140.75C489.396 140.895 489.128 141.013 488.85 141.103C489.088 140.935 489.338 140.784 489.597 140.649L491.767 139.438L499.842 135.078L511.793 128.669C514.044 127.469 516.436 126.236 518.768 124.753C521.217 123.313 523.363 121.411 525.087 119.153C526.697 116.816 527.697 114.113 527.994 111.29C528.257 108.657 528.097 105.999 527.52 103.417C527.078 101.074 526.034 98.886 524.492 97.068C523.112 95.5088 521.342 94.3452 519.364 93.697C517.733 93.1852 516.019 92.9967 514.317 93.142C513.015 93.2541 511.728 93.4885 510.471 93.842C509.462 94.135 508.644 94.397 508.109 94.589C507.797 94.712 507.472 94.7966 507.14 94.841V94.831Z" fill="#263238"/>
<path d="M490.355 141.232C490.173 141.282 489.729 137.659 487.327 134.015C484.925 130.371 481.856 128.453 481.977 128.315C482.715 128.607 483.398 129.023 483.996 129.546C486.991 131.916 489.12 135.209 490.052 138.913C490.285 139.664 490.386 140.449 490.352 141.235L490.355 141.232Z" fill="#263238"/>
<path d="M569.892 134.469C569.519 134.608 569.134 134.713 568.741 134.782C567.618 134.999 566.468 135.05 565.329 134.933C563.519 134.746 561.77 134.171 560.201 133.247C558.113 132.004 556.46 130.146 555.467 127.928C554.242 125.232 554.009 122.189 554.811 119.338C555.263 117.721 556.276 116.319 557.668 115.381C558.429 114.877 559.354 114.685 560.252 114.846C561.156 115.055 561.953 115.586 562.493 116.34C563.491 117.929 564.117 119.722 564.327 121.587C564.536 123.451 564.324 125.339 563.704 127.11C563.102 129.005 562.065 130.733 560.676 132.157C559.221 133.612 557.407 134.657 555.417 135.185C553.459 135.725 551.395 135.76 549.419 135.287C547.443 134.814 545.619 133.848 544.117 132.48C542.778 131.163 541.773 129.545 541.185 127.762C540.597 125.978 540.443 124.08 540.736 122.225C540.993 120.497 541.688 118.864 542.755 117.481C543.288 116.805 543.983 116.274 544.774 115.937C545.569 115.608 546.462 115.608 547.257 115.937C547.974 116.273 548.593 116.787 549.054 117.43C549.515 118.073 549.804 118.824 549.891 119.611C550.003 121.033 549.72 122.458 549.073 123.729C548.002 125.886 546.545 127.829 544.773 129.462C543.448 130.693 541.965 131.742 540.362 132.581C539.355 133.115 538.301 133.558 537.213 133.903C536.85 134.024 536.557 134.085 536.365 134.135C536.268 134.168 536.168 134.189 536.065 134.196C536.154 134.145 536.249 134.107 536.348 134.085C536.54 134.014 536.822 133.934 537.186 133.792C538.248 133.41 539.278 132.944 540.265 132.399C541.832 131.535 543.28 130.473 544.575 129.24C546.292 127.618 547.701 125.7 548.734 123.577C549.334 122.363 549.592 121.01 549.481 119.661C549.396 118.952 549.131 118.276 548.713 117.697C548.294 117.118 547.736 116.654 547.089 116.35C546.404 116.067 545.635 116.067 544.949 116.35C544.235 116.661 543.61 117.147 543.132 117.763C542.101 119.081 541.43 120.644 541.185 122.299C540.911 124.072 541.063 125.884 541.628 127.587C542.193 129.29 543.155 130.833 544.435 132.09C545.876 133.382 547.619 134.289 549.503 134.729C551.388 135.168 553.352 135.125 555.215 134.603C557.119 134.127 558.862 133.151 560.262 131.777C561.601 130.429 562.606 128.787 563.199 126.983C563.777 125.238 563.981 123.392 563.799 121.563C563.723 120.679 563.536 119.807 563.244 118.969C563.002 118.146 562.62 117.371 562.114 116.678C561.643 116.015 560.947 115.546 560.156 115.356C559.381 115.214 558.58 115.381 557.925 115.82C556.618 116.673 555.659 117.966 555.22 119.464C554.427 122.213 554.627 125.154 555.785 127.771C556.729 129.938 558.319 131.76 560.337 132.989C561.86 133.919 563.566 134.511 565.337 134.725C566.859 134.893 568.399 134.806 569.892 134.469Z" fill="#FAFAFA"/>
<path d="M573.968 73.9069C572.819 72.5072 571.996 70.8698 571.556 69.1129C571.375 68.5478 571.354 67.9434 571.495 67.3669C571.568 67.0774 571.735 66.8206 571.971 66.6377C572.207 66.4547 572.497 66.3562 572.795 66.3579C573.401 66.3579 573.804 66.9739 574.137 67.4879C575.124 68.9735 575.956 70.5565 576.62 72.2119C576.816 72.6643 576.916 73.1522 576.913 73.6449C576.911 73.8913 576.845 74.1328 576.722 74.3466C576.6 74.5603 576.425 74.7391 576.213 74.8659C575.965 74.9738 575.692 75.0122 575.424 74.977C575.155 74.9417 574.901 74.8342 574.689 74.6659C574.284 74.3216 573.942 73.9083 573.68 73.4449" fill="#995037"/>
<path d="M576.563 72.7869L573.898 67.1949C573.596 66.6603 573.408 66.0695 573.343 65.4589C573.317 65.1522 573.386 64.8449 573.539 64.578C573.692 64.3111 573.923 64.0972 574.201 63.9649C574.459 63.8909 574.732 63.8874 574.991 63.955C575.25 64.0226 575.487 64.1586 575.675 64.349C576.056 64.7252 576.361 65.1705 576.575 65.6609L577.837 68.114C578.211 68.7639 578.49 69.464 578.665 70.1929C578.751 70.5603 578.759 70.9416 578.687 71.3121C578.616 71.6825 578.467 72.0338 578.251 72.3429C578.02 72.6417 577.693 72.8519 577.326 72.9382C576.958 73.0245 576.572 72.9817 576.232 72.8169" fill="#995037"/>
<path d="M564.703 90.0768C564.703 90.0768 560.989 85.2618 560.666 82.7288C560.343 80.1958 563.442 75.6628 570.114 74.6538C572.549 74.3981 574.895 73.5977 576.978 72.3118C577.387 72.0338 577.687 71.6235 577.829 71.1499C577.97 70.6763 577.944 70.1685 577.755 69.7118C576.877 67.5818 575.302 63.6558 575.423 63.1008C575.736 61.7378 576.623 61.7688 578.923 65.1198C581.223 68.4708 583.899 71.9198 583.384 73.4778C582.869 75.0358 574.734 79.8468 574.734 79.8468L576.955 83.4298L564.703 90.0768Z" fill="#B77153"/>
<path d="M586.768 139.577L561.161 89.402L577.654 80.166L612.295 135.075C612.295 135.075 614.122 138.588 616.676 142.696H587.636" fill="#455A64"/>
<path d="M577.42 80.166C577.331 80.2395 577.237 80.3063 577.137 80.366L576.269 80.891L572.958 82.819L561.048 89.602L561.139 89.302C563.632 94.349 566.872 100.254 570.132 106.643C574.987 116.081 579.216 124.731 582.143 131.029C583.617 134.178 584.787 136.742 585.585 138.508C585.958 139.366 586.261 140.042 586.485 140.527C586.605 140.759 586.7 141.002 586.768 141.254C586.617 141.039 586.489 140.809 586.384 140.568C586.142 140.068 585.809 139.397 585.375 138.549L581.782 131.14C578.754 124.892 574.494 116.272 569.67 106.835C566.41 100.456 563.19 94.571 560.737 89.464L560.646 89.264L560.838 89.153L572.838 82.542L576.219 80.715L577.119 80.251C577.216 80.2095 577.317 80.1809 577.42 80.166Z" fill="#263238"/>
<path d="M509.491 144.038C507.28 140.44 505.827 136.428 505.221 132.249C505.382 132.249 506.079 134.934 507.24 138.174C508.401 141.414 509.627 143.967 509.491 144.038Z" fill="#263238"/>
<path d="M565.895 70.0718C567.929 70.8967 570.177 71.0358 572.298 70.4679C574.419 69.9 576.297 68.6561 577.647 66.9248C578.997 65.1935 579.746 63.0692 579.78 60.8739C579.814 58.6786 579.131 56.5321 577.836 54.7598C583.62 53.2958 587.223 46.6248 586.052 40.7698C584.881 34.9148 579.663 30.3528 573.829 29.0918C571.598 28.557 569.266 28.6163 567.066 29.2638C565.972 29.5995 564.959 30.1574 564.09 30.9024C563.222 31.6475 562.517 32.5637 562.019 33.5938" fill="#263238"/>
<path d="M565.072 56.9908C565.072 57.0518 564.325 57.1908 563.104 57.8288C561.386 58.7432 560.025 60.2078 559.238 61.9878C558.66 63.2904 558.416 64.7167 558.529 66.1373C558.642 67.5579 559.108 68.9278 559.884 70.1228C560.327 70.8129 560.872 71.4322 561.499 71.9598C562.143 72.5193 562.872 72.9723 563.659 73.3018C565.315 74.019 567.156 74.1894 568.915 73.7881C570.674 73.3869 572.259 72.435 573.44 71.0708C574.003 70.4292 574.463 69.7039 574.803 68.9208C575.136 68.1731 575.357 67.3807 575.459 66.5688C575.605 65.3826 575.504 64.1789 575.161 63.0339C574.818 61.8888 574.241 60.8274 573.467 59.9167C572.693 59.006 571.739 58.2658 570.664 57.7429C569.589 57.22 568.418 56.9258 567.223 56.8788C565.84 56.8288 565.083 57.0508 565.073 56.9788C565.247 56.9043 565.431 56.8535 565.618 56.8278C566.144 56.7156 566.681 56.6617 567.218 56.6668C568.472 56.6712 569.71 56.9412 570.852 57.4591C571.993 57.9769 573.012 58.731 573.841 59.6714C574.669 60.6118 575.289 61.7172 575.66 62.9147C576.03 64.1123 576.142 65.3747 575.989 66.6188C575.901 67.4811 575.673 68.3231 575.313 69.1118C574.964 69.9487 574.48 70.7226 573.88 71.4028C572.63 72.8572 570.947 73.8724 569.078 74.2994C567.208 74.7263 565.251 74.5425 563.494 73.7748C562.662 73.4172 561.893 72.9302 561.213 72.3318C560.549 71.7747 559.975 71.1175 559.513 70.3838C558.655 69.0267 558.172 67.4664 558.113 65.8618C558.057 64.1611 558.493 62.4803 559.369 61.0212C560.244 59.5621 561.522 58.3866 563.049 57.6358C563.534 57.3914 564.045 57.2051 564.573 57.0808C564.734 57.0319 564.9 57.0013 565.068 56.9898L565.072 56.9908Z" fill="#6F3C96"/>
<path d="M569.458 41.0829C571.564 40.9632 573.577 40.1753 575.205 38.8336C576.833 37.4919 577.991 35.6663 578.51 33.6218C579.03 31.5773 578.885 29.4204 578.095 27.4641C577.306 25.5078 575.914 23.8541 574.121 22.7429C574.989 20.3076 575.07 17.6607 574.352 15.1769C573.633 12.6931 572.151 10.4982 570.116 8.90299C568.081 7.30778 565.596 6.39301 563.013 6.28819C560.429 6.18337 557.878 6.8938 555.721 8.31892C554.08 5.41014 551.588 3.07342 548.58 1.62294C545.572 0.17246 542.192 -0.322231 538.894 0.205388C535.597 0.733006 532.54 2.25764 530.134 4.57427C527.729 6.89091 526.091 9.88847 525.44 13.1639C522.483 11.941 519.225 11.6441 516.096 12.3126C512.967 12.9811 510.114 14.5835 507.915 16.9078C505.716 19.2322 504.275 22.1692 503.781 25.3305C503.287 28.4918 503.764 31.7285 505.149 34.6129C503.546 34.7494 501.986 35.2002 500.558 35.9396C499.13 36.679 497.861 37.6925 496.824 38.9221C495.788 40.1518 495.003 41.5736 494.516 43.1064C494.029 44.6392 493.849 46.2529 493.985 47.8554C494.122 49.4579 494.572 51.0179 495.312 52.4462C496.051 53.8745 497.065 55.1432 498.294 56.1798C499.524 57.2164 500.946 58.0007 502.479 58.4878C504.011 58.975 505.625 59.1554 507.228 59.0189C506.574 61.1545 506.598 63.4404 507.297 65.5617C507.996 67.683 509.335 69.5354 511.131 70.8638C512.927 72.1921 515.09 72.9311 517.323 72.979C519.556 73.0268 521.749 72.3812 523.6 71.1309C524.782 73.0365 526.482 74.5667 528.501 75.5432C530.52 76.5197 532.774 76.9022 535.002 76.6461C537.23 76.3901 539.34 75.506 541.084 74.097C542.829 72.688 544.137 70.8121 544.857 68.6879" fill="#263238"/>
<path d="M557.308 88.4419C557.52 83.5259 557.782 79.0749 557.782 79.0749C557.782 79.0749 568.774 77.6919 569.248 66.4749C569.722 55.2579 568.602 29.4419 568.602 29.4419L548.408 19.7349L526.65 37.2579L530.062 88.7349C530.302 92.3014 531.929 95.6323 534.595 98.0135C537.261 100.395 540.754 101.637 544.324 101.473C547.724 101.311 550.94 99.8845 553.342 97.4738C555.744 95.063 557.159 91.8418 557.308 88.4419Z" fill="#B77153"/>
<path d="M568.065 48.6429C567.883 48.8349 566.834 47.9569 565.33 47.8959C563.826 47.8349 562.706 48.6029 562.554 48.3959C562.402 48.1889 562.654 47.9619 563.139 47.5959C563.791 47.1403 564.576 46.9163 565.37 46.9599C566.166 46.9925 566.929 47.2871 567.54 47.7979C567.994 48.2089 568.145 48.5629 568.065 48.6429Z" fill="#263238"/>
<path d="M551.389 48.6429C551.207 48.8349 550.168 47.9569 548.654 47.8959C547.14 47.8349 546.04 48.6029 545.878 48.3959C545.716 48.1889 545.978 47.9619 546.463 47.5959C547.115 47.1403 547.901 46.9163 548.694 46.9599C549.49 46.9925 550.253 47.2871 550.864 47.7979C551.318 48.2089 551.47 48.5629 551.389 48.6429Z" fill="#263238"/>
<path d="M557.041 59.9579C557.838 59.7207 558.663 59.5952 559.494 59.5849C559.878 59.5849 560.241 59.4849 560.312 59.2119C560.353 58.7879 560.273 58.361 560.08 57.9809C559.73 56.9716 559.367 55.9119 558.99 54.8019C557.476 50.2699 556.396 46.5559 556.568 46.4949C556.74 46.4339 558.092 50.0579 559.596 54.5699L560.605 57.7699C560.833 58.2798 560.893 58.8487 560.777 59.3949C560.719 59.5326 560.631 59.6557 560.519 59.7551C560.407 59.8546 560.275 59.9279 560.131 59.9699C559.921 60.0253 559.703 60.0492 559.485 60.0409C558.671 60.1227 557.849 60.0954 557.042 59.9599L557.041 59.9579Z" fill="#263238"/>
<path d="M557.779 79.086C552.57 78.9498 547.515 77.2939 543.234 74.322C543.234 74.322 546.656 82.488 557.587 81.842L557.779 79.086Z" fill="#995037"/>
<path d="M542.174 20.36C540.423 22.8874 539.502 25.8969 539.538 28.9714C539.573 32.046 540.565 35.0332 542.374 37.519C544.009 39.659 546.474 41.405 549.167 41.304C551.86 41.203 554.467 38.659 553.891 36.025C553.629 36.852 553.563 37.7289 553.7 38.5858C553.836 39.4426 554.17 40.2558 554.676 40.9606C555.182 41.6654 555.846 42.2422 556.614 42.6452C557.383 43.0482 558.235 43.2662 559.102 43.2818C559.97 43.2974 560.829 43.1101 561.611 42.7351C562.394 42.36 563.078 41.8073 563.609 41.1212C564.14 40.4351 564.503 39.6344 564.67 38.783C564.837 37.9316 564.803 37.0529 564.57 36.217C564.78 37.4279 565.208 38.5906 565.832 39.649C566.152 40.1774 566.609 40.6087 567.156 40.8967C567.702 41.1848 568.316 41.3187 568.932 41.284C570.618 41.062 571.597 39.265 571.96 37.584C572.483 35.0765 572.363 32.4776 571.614 30.0285C570.864 27.5793 569.507 25.3592 567.67 23.574C565.805 21.8259 563.596 20.4858 561.184 19.6394C558.771 18.7929 556.209 18.4587 553.66 18.658C548.533 19.1092 543.698 21.2377 539.902 24.714" fill="#263238"/>
<path d="M543.597 24.3179C545.019 27.4971 545.788 30.9297 545.858 34.4119C545.918 37.9133 544.615 41.3011 542.224 43.8599C541.014 45.1053 539.475 45.9818 537.787 46.3873C536.098 46.7929 534.329 46.7109 532.685 46.1509C533.128 47.6536 533.232 49.2355 532.991 50.7834C532.751 52.3313 532.17 53.8067 531.292 55.1039C529.415 57.5969 525.72 58.7879 522.985 57.2839C520.502 55.9309 519.432 52.9239 519.085 50.1179C518.673 46.7121 519.03 43.2573 520.129 40.0075C521.228 36.7578 523.041 33.7957 525.436 31.3391C527.83 28.8825 530.745 26.9939 533.966 25.8123C537.186 24.6306 540.631 24.1859 544.046 24.5109" fill="#263238"/>
<path d="M529.73 51.035C528.236 50.106 526.197 50.863 525.006 52.165C524.068 53.1944 523.489 54.4996 523.355 55.8854C523.22 57.2713 523.538 58.6634 524.261 59.8537C524.983 61.044 526.071 61.9686 527.362 62.4894C528.653 63.0102 530.079 63.0991 531.425 62.743" fill="#B77153"/>
<path d="M529.386 59.383C529.386 59.444 528.891 59.514 528.114 59.302C527.6 59.1687 527.124 58.9166 526.724 58.566C526.325 58.2153 526.013 57.7759 525.814 57.283C525.61 56.6964 525.632 56.0545 525.875 55.483C526.08 55.039 526.401 54.6589 526.804 54.383C527.504 53.929 528.025 53.939 528.035 53.999C528.045 54.059 527.581 54.211 527.026 54.685C526.674 54.9672 526.416 55.3506 526.288 55.7836C526.16 56.2166 526.167 56.6784 526.309 57.107C526.486 57.5337 526.748 57.9195 527.08 58.2407C527.411 58.5618 527.805 58.8114 528.237 58.974C528.972 59.232 529.396 59.305 529.386 59.383Z" fill="#995037"/>
<path d="M552.318 43.9689C552.177 44.4029 550.531 44.2419 548.583 44.3319C546.635 44.4219 545.01 44.6649 544.838 44.2409C544.666 43.8169 546.251 42.7979 548.522 42.7169C550.793 42.6359 552.469 43.5549 552.318 43.9689Z" fill="#263238"/>
<path d="M568.024 43.6558C567.852 43.8068 567.524 43.6558 567.124 43.6058C566.675 43.4977 566.21 43.4703 565.751 43.5248C565.166 43.5248 564.52 43.6868 564.025 43.6758C563.53 43.6648 563.187 43.5648 563.125 43.3428C563.063 43.1208 563.287 42.8588 563.7 42.5758C564.276 42.2085 564.929 41.9804 565.608 41.9098C566.005 41.8581 566.408 41.9005 566.785 42.0338C567.162 42.1671 567.503 42.3874 567.778 42.6768C568.155 43.1308 568.186 43.5148 568.024 43.6558Z" fill="#263238"/>
<path d="M554.428 62.825C554.844 62.5567 555.313 62.382 555.802 62.313C556.292 62.2439 556.791 62.2821 557.264 62.425C557.732 62.5875 558.128 62.9087 558.384 63.3329C558.64 63.757 558.739 64.2573 558.664 64.747C558.527 65.2728 558.204 65.7314 557.756 66.039C557.429 66.292 557.053 66.4731 556.651 66.5705C556.249 66.6678 555.831 66.6792 555.424 66.604C555.017 66.522 554.64 66.3309 554.333 66.051C554.026 65.7711 553.801 65.413 553.681 65.015C553.581 64.6127 553.617 64.1885 553.783 63.8086C553.949 63.4287 554.236 63.1144 554.599 62.915" fill="#995037"/>
<path d="M559.94 64.026C559.62 64.262 559.251 64.4208 558.859 64.49C557.905 64.688 556.913 64.5928 556.014 64.217C555.116 63.8379 554.351 63.2023 553.814 62.39C553.414 61.774 553.329 61.32 553.389 61.29C553.449 61.26 553.673 61.643 554.117 62.168C554.69 62.8381 555.408 63.3694 556.216 63.722C557.036 64.0502 557.92 64.185 558.801 64.116C559.486 64.066 559.91 63.945 559.94 64.026Z" fill="#263238"/>
<path d="M537.177 69.376C537.094 68.6619 536.966 67.9538 536.793 67.256C536.285 65.3814 535.162 63.7321 533.603 62.573C532.543 61.774 531.31 61.2346 530.003 60.998C528.505 60.7318 526.963 60.8643 525.532 61.382C524.76 61.6607 524.035 62.0556 523.382 62.553C522.692 63.0534 522.088 63.6639 521.595 64.36C520.527 65.8125 519.951 67.5684 519.951 69.3715C519.951 71.1746 520.527 72.9305 521.595 74.383C522.088 75.079 522.692 75.6895 523.382 76.19C524.035 76.6873 524.76 77.0822 525.532 77.361C526.655 77.768 527.851 77.9372 529.042 77.8579C530.234 77.7785 531.397 77.4524 532.456 76.9001C533.515 76.3478 534.447 75.5814 535.195 74.6495C535.942 73.7177 536.487 72.6407 536.796 71.487C537.149 70.155 537.109 69.367 537.18 69.377C537.196 69.5616 537.196 69.7473 537.18 69.932C537.179 70.4709 537.114 71.0079 536.988 71.532C536.536 73.4948 535.416 75.2396 533.819 76.468C532.72 77.327 531.433 77.9148 530.064 78.184C528.486 78.4874 526.854 78.362 525.34 77.821C524.522 77.5333 523.753 77.1215 523.059 76.6C522.324 76.0716 521.68 75.4272 521.151 74.692C520.005 73.1534 519.386 71.286 519.386 69.3675C519.386 67.4489 520.005 65.5815 521.151 64.043C521.68 63.3077 522.324 62.6633 523.059 62.135C523.753 61.6134 524.522 61.2016 525.34 60.914C526.753 60.4025 528.272 60.2583 529.755 60.495C531.238 60.7317 532.637 61.3414 533.819 62.267C535.416 63.4953 536.536 65.2401 536.988 67.203C537.114 67.727 537.179 68.264 537.18 68.803C537.195 68.9937 537.194 69.1854 537.177 69.376Z" fill="#6F3C96"/>
<path d="M568.015 19.1898C568.112 19.1965 568.208 19.2206 568.298 19.2608C568.561 19.3644 568.801 19.5187 569.005 19.7148C569.386 20.0937 569.668 20.5611 569.825 21.0753C569.982 21.5894 570.009 22.1345 569.905 22.6618C569.691 23.4629 569.245 24.1831 568.624 24.7325C568.003 25.2818 567.234 25.636 566.413 25.7508C564.336 26.0003 562.238 25.4991 560.498 24.3378L558.419 23.1378L560.7 23.8848C561.092 24.0236 561.443 24.2591 561.72 24.5695C561.997 24.88 562.191 25.2553 562.285 25.6608C562.394 26.0641 562.422 26.4852 562.366 26.8994C562.311 27.3136 562.173 27.7125 561.962 28.0728C561.499 28.7975 560.777 29.3175 559.943 29.5258C559.102 29.7379 558.219 29.7168 557.389 29.4648C555.53 28.7394 553.977 27.398 552.989 25.6648L551.455 23.5648L553.312 25.3718C553.792 25.8682 554.137 26.4796 554.314 27.1476C554.491 27.8156 554.493 28.5177 554.321 29.1868C554.186 29.7983 553.914 30.3712 553.526 30.8624C553.138 31.3537 552.643 31.7504 552.08 32.0228C551.154 32.4617 550.123 32.6289 549.107 32.505C548.09 32.3811 547.129 31.9711 546.337 31.3228C545.29 30.4719 544.517 29.3309 544.116 28.0428C544.01 27.713 543.929 27.3757 543.874 27.0338C543.862 26.9131 543.862 26.7915 543.874 26.6708C543.925 26.6708 543.985 27.1558 544.308 27.9928C544.754 29.1849 545.518 30.2321 546.518 31.0208C547.268 31.5999 548.166 31.9586 549.109 32.0566C550.052 32.1546 551.004 31.9882 551.858 31.5758C552.356 31.3272 552.792 30.9693 553.133 30.5288C553.473 30.0883 553.71 29.5766 553.826 29.0318C553.973 28.4476 553.969 27.8357 553.816 27.2531C553.662 26.6706 553.364 26.1365 552.948 25.7008L553.342 25.3678C554.269 26.988 555.717 28.2471 557.45 28.9408C558.158 29.2026 558.93 29.2322 559.656 29.0253C560.382 28.8183 561.023 28.3856 561.487 27.7898C562.214 26.5988 561.78 24.7618 560.548 24.3478L560.748 23.8938C562.378 25.0138 564.351 25.5246 566.32 25.3368C567.081 25.2465 567.799 24.9342 568.384 24.4388C568.969 23.9434 569.395 23.2868 569.61 22.5508C569.715 22.0642 569.705 21.5597 569.581 21.0777C569.456 20.5957 569.22 20.1495 568.893 19.7748C568.629 19.535 568.334 19.3331 568.015 19.1748V19.1898Z" fill="#455A64"/>
<path d="M541.084 37.224C541.084 37.224 541.084 37.295 540.953 37.416C540.808 37.5942 540.649 37.7613 540.479 37.916C539.827 38.5098 539.061 38.9661 538.228 39.258C536.926 39.7128 535.512 39.736 534.195 39.324C533.323 39.051 532.515 38.6032 531.821 38.0081C531.126 37.4129 530.561 36.6828 530.157 35.862L530.581 35.801C530.418 36.8229 530.013 37.7913 529.402 38.6263C528.79 39.4613 527.989 40.139 527.064 40.6036C526.14 41.0682 525.118 41.3063 524.083 41.2984C523.048 41.2905 522.03 41.0367 521.112 40.5581C520.194 40.0794 519.404 39.3895 518.805 38.5452C518.206 37.701 517.817 36.7266 517.669 35.7023C517.521 34.678 517.618 33.6332 517.953 32.6539C518.288 31.6747 518.851 30.789 519.595 30.07L519.948 30.443C518.757 31.4328 517.259 31.9785 515.709 31.987C514.303 32.0144 512.919 31.6359 511.722 30.897C510.653 30.2331 509.817 29.2523 509.33 28.091C508.934 27.1015 508.765 26.0356 508.835 24.972C508.92 23.4602 509.502 22.0187 510.49 20.872C510.836 20.4633 511.253 20.1213 511.721 19.863C510.96 20.5023 510.338 21.2924 509.897 22.1835C509.456 23.0747 509.204 24.0477 509.157 25.041C509.116 26.0509 509.298 27.0574 509.692 27.988C510.164 29.0579 510.953 29.9566 511.953 30.562C513.077 31.2525 514.377 31.6039 515.695 31.574C517.125 31.554 518.506 31.0487 519.611 30.141L519.954 30.514C519.096 31.3945 518.516 32.5087 518.288 33.7171C518.06 34.9255 518.194 36.1743 518.672 37.307C519.258 38.5439 520.239 39.551 521.459 40.1704C522.68 40.7898 524.071 40.9863 525.415 40.729C526.593 40.4517 527.665 39.8403 528.503 38.9682C529.341 38.0961 529.909 37.0004 530.139 35.813L530.25 35.106L530.563 35.752C530.931 36.5233 531.449 37.2135 532.087 37.782C532.724 38.3506 533.469 38.7861 534.277 39.063C535.539 39.4825 536.902 39.4825 538.163 39.063C538.979 38.8119 539.74 38.4077 540.404 37.872C540.895 37.449 541.084 37.207 541.084 37.224Z" fill="#455A64"/>
<path d="M521.109 55.174C520.856 55.4071 520.557 55.5857 520.231 55.699C519.347 56.0672 518.386 56.2161 517.431 56.1329C515.956 56.024 514.579 55.352 513.585 54.256C512.959 53.5625 512.497 52.737 512.233 51.8406C511.97 50.9443 511.911 50.0001 512.061 49.0779L512.525 49.2779C511.529 50.5982 510.231 51.6611 508.74 52.378C507.591 52.9236 506.329 53.1898 505.056 53.1549C503.871 53.1215 502.711 52.8028 501.675 52.226C500.781 51.7652 500.016 51.0861 499.454 50.2517C498.891 49.4172 498.547 48.4543 498.455 47.452C498.335 46.1108 498.693 44.7702 499.464 43.6669C499.682 43.3794 499.937 43.1216 500.221 42.8999C500.316 42.8134 500.425 42.7456 500.544 42.7C500.202 43.0279 499.897 43.3935 499.636 43.7899C498.961 44.8741 498.669 46.154 498.809 47.424C498.913 48.3616 499.253 49.2575 499.797 50.0287C500.34 50.7998 501.07 51.4211 501.917 51.8349C502.93 52.3709 504.056 52.6586 505.202 52.6744C506.348 52.6902 507.481 52.4337 508.508 51.9259C509.922 51.251 511.155 50.2515 512.108 49.0089L512.764 48.1609L512.572 49.17C512.43 50.017 512.476 50.8852 512.708 51.7122C512.94 52.5393 513.352 53.3049 513.914 53.9539C514.826 54.9947 516.093 55.6571 517.467 55.811C518.377 55.9179 519.298 55.8247 520.167 55.5379C520.776 55.3259 521.089 55.143 521.109 55.174Z" fill="#455A64"/>
<path d="M578.27 33.311C578.513 33.9013 578.59 34.5471 578.492 35.178C578.372 36.7295 577.719 38.1917 576.644 39.316C575.568 40.4403 574.136 41.1573 572.592 41.345C571.969 41.4769 571.321 41.428 570.725 41.204C570.725 41.113 571.442 41.204 572.532 40.972C573.956 40.7037 575.261 39.9956 576.262 38.9473C577.263 37.8991 577.911 36.5634 578.114 35.128C578.29 34.027 578.179 33.321 578.27 33.311Z" fill="#455A64"/>
<path d="M584.487 43.8779C584.624 44.1129 584.71 44.3743 584.739 44.6449C584.859 45.3876 584.786 46.1488 584.527 46.8549C584.342 47.4053 584.021 47.9002 583.594 48.2936C583.167 48.6871 582.647 48.9665 582.084 49.1059C581.407 49.2444 580.705 49.1811 580.065 48.9239C579.706 48.7875 579.379 48.5793 579.104 48.3121C578.829 48.0449 578.611 47.7243 578.465 47.3699L578.965 47.1979C579.057 47.5262 579.101 47.866 579.096 48.2069C579.066 48.9866 578.81 49.7409 578.36 50.3785C577.911 51.0162 577.286 51.5099 576.562 51.7999C575.914 52.0373 575.209 52.0691 574.543 51.8909C573.981 51.7299 573.463 51.4434 573.029 51.0529C572.388 50.5092 571.957 49.7598 571.808 48.9329C571.748 48.64 571.748 48.3379 571.808 48.0449C571.824 48.3344 571.882 48.6199 571.98 48.8929C572.2 49.6292 572.641 50.2806 573.242 50.7599C573.663 51.1214 574.173 51.3649 574.719 51.4659C575.265 51.5669 575.828 51.5217 576.351 51.3349C576.973 51.0723 577.508 50.638 577.893 50.0827C578.278 49.5274 578.498 48.8741 578.526 48.1989C578.531 47.9189 578.494 47.6396 578.415 47.3709L578.93 47.1989C579.201 47.7434 579.646 48.1818 580.194 48.445C580.743 48.7081 581.363 48.7809 581.958 48.6519C582.452 48.5377 582.911 48.304 583.295 47.9714C583.678 47.6388 583.975 47.2174 584.158 46.7439C584.425 46.1059 584.546 45.4159 584.511 44.7249C584.487 44.1609 584.396 43.8889 584.487 43.8779Z" fill="#455A64"/>
<path d="M553.663 58.8979C553.734 58.8979 553.774 59.1299 553.663 59.4729C553.525 59.9161 553.261 60.309 552.902 60.6032C552.543 60.8974 552.106 61.0798 551.644 61.128C551.291 61.128 551.079 61.0669 551.089 60.9969C551.612 60.7909 552.104 60.5158 552.553 60.1789C553.237 59.5819 553.51 58.8979 553.663 58.8979Z" fill="#263238"/>
<path d="M839.241 348.373C836.718 351.966 831.822 350.773 829.551 348.585C827.28 346.397 826.321 343.205 825.443 340.167C823.424 333.233 821.405 325.955 822.919 318.89C823.278 316.748 824.221 314.746 825.644 313.106C826.36 312.295 827.278 311.688 828.304 311.346C829.33 311.003 830.429 310.939 831.488 311.158C833.961 311.804 835.525 314.186 836.605 316.528C839.881 323.318 841.605 330.751 841.652 338.29C841.652 341.803 841.252 345.477 839.27 348.384" fill="#6F3C96"/>
<g opacity="0.2">
<path opacity="0.2" d="M839.243 348.373C836.72 351.966 831.824 350.773 829.553 348.585C827.282 346.397 826.323 343.205 825.445 340.167C823.426 333.233 821.407 325.955 822.921 318.89C823.28 316.748 824.223 314.746 825.646 313.106C826.362 312.295 827.28 311.688 828.306 311.346C829.332 311.003 830.431 310.939 831.49 311.158C833.963 311.804 835.527 314.186 836.607 316.528C839.883 323.318 841.607 330.751 841.654 338.29C841.654 341.803 841.254 345.477 839.272 348.384" fill="black"/>
</g>
<path d="M829.805 366.602C825.57 364.608 820.808 364.028 816.219 364.947C813.766 365.361 811.172 366.098 809.527 367.975C807.882 369.852 807.508 373.075 809.456 374.657C810.693 375.496 812.186 375.875 813.675 375.727C817.258 375.727 821.235 375.061 824.092 377.211C825.727 378.442 826.817 380.491 828.765 381.097C829.737 381.313 830.753 381.209 831.663 380.802C832.572 380.395 833.325 379.705 833.812 378.836C834.742 377.04 834.948 374.955 834.387 373.012C834.168 371.663 833.641 370.383 832.846 369.271C832.051 368.159 831.01 367.246 829.805 366.603V366.602Z" fill="#6F3C96"/>
<path d="M846.167 353.53C843.422 350.29 842.907 345.556 844.148 341.488C845.528 337.445 847.998 333.862 851.284 331.132C855.012 327.811 859.353 325.25 864.062 323.592C865.883 322.838 867.847 322.494 869.815 322.583C870.794 322.643 871.743 322.94 872.582 323.448C873.421 323.956 874.124 324.66 874.63 325.5C875.983 328.064 874.691 331.172 873.298 333.716C870.834 338.214 868.02 342.51 864.88 346.565C862.367 349.815 859.48 353.015 855.644 354.478C851.808 355.941 847.832 355.77 845.793 353.115" fill="#6F3C96"/>
<path d="M839.434 402.656C839.299 402.121 839.221 401.573 839.202 401.021C839.091 399.84 838.94 398.336 838.768 396.56C838.544 394.364 838.207 392.18 837.759 390.019C837.172 387.382 836.376 384.797 835.377 382.287C834.4 379.783 833.071 377.431 831.43 375.302C830.097 373.566 828.394 372.149 826.444 371.154C825.122 370.497 823.705 370.055 822.244 369.842C821.696 369.822 821.151 369.744 820.619 369.61C821.169 369.543 821.725 369.543 822.274 369.61C823.791 369.728 825.274 370.114 826.655 370.751C828.706 371.725 830.506 373.159 831.914 374.94C833.62 377.101 834.998 379.502 836.002 382.066C837.014 384.611 837.804 387.238 838.364 389.919C838.79 392.11 839.08 394.324 839.232 396.551C839.373 398.451 839.432 399.983 839.454 401.043C839.504 401.58 839.497 402.122 839.434 402.658V402.656Z" fill="#263238"/>
<path d="M839.1 399.229C839.077 398.977 839.077 398.724 839.1 398.472V396.302C839.1 394.425 839.1 391.702 839 388.328C838.839 381.596 838.253 372.309 837.133 362.085C836.013 351.861 834.509 342.685 833.156 336.094C832.833 334.439 832.51 332.955 832.147 331.653C831.784 330.351 831.612 329.22 831.37 328.312C831.128 327.404 830.997 326.758 830.87 326.202C830.79 325.957 830.745 325.702 830.739 325.445C830.851 325.674 830.939 325.915 831.001 326.162L831.627 328.241C831.91 329.141 832.192 330.26 832.527 331.562C832.862 332.864 833.227 334.338 833.536 335.993C835.395 344.586 836.793 353.272 837.725 362.014C838.845 372.249 839.35 381.565 839.39 388.308C839.39 391.679 839.39 394.415 839.279 396.302C839.218 397.18 839.179 397.897 839.138 398.472C839.168 398.724 839.158 398.98 839.108 399.229H839.1Z" fill="#263238"/>
<path d="M839.061 381.257C838.999 380.501 838.999 379.742 839.061 378.986C839.152 377.532 839.354 375.423 839.761 372.849C840.267 369.829 840.941 366.84 841.78 363.896C842.765 360.284 844.004 356.746 845.486 353.308C848.084 346.987 851.806 341.19 856.473 336.198C857.287 335.345 858.153 334.543 859.067 333.798C859.461 333.465 859.814 333.132 860.167 332.869L861.176 332.169C861.78 331.713 862.417 331.305 863.084 330.948C860.893 332.683 858.806 334.547 856.836 336.53C852.315 341.576 848.693 347.36 846.127 353.63C843.462 359.844 841.488 366.333 840.242 372.979C839.747 375.523 839.505 377.612 839.334 379.035C839.302 379.781 839.211 380.524 839.061 381.256V381.257Z" fill="#263238"/>
</svg>
