<svg width="28" height="27" viewBox="0 0 28 27" fill="none" xmlns="http://www.w3.org/2000/svg">
<path d="M25.8895 23.9795C24.556 25.3529 22.7233 26.128 20.809 26.128C18.8946 26.128 17.0619 25.3529 15.7285 23.9795L1.75845 9.71647C-0.346567 7.54991 -0.346567 4.10203 1.75845 1.93547C3.43745 0.213349 6.06671 -0.159677 8.15845 1.02747C8.37972 1.03695 8.58929 1.12942 8.74545 1.28647L22.7155 15.5505C24.1179 16.9947 24.1179 19.2923 22.7155 20.7365C22.0488 21.4229 21.1328 21.8102 20.176 21.8102C19.2191 21.8102 18.3031 21.4229 17.6365 20.7365L6.20345 9.06547C5.85082 8.70387 5.85082 8.12706 6.20345 7.76547C6.37025 7.59405 6.59927 7.49734 6.83845 7.49734C7.07763 7.49734 7.30665 7.59405 7.47345 7.76547L18.9045 19.4355C19.2375 19.7793 19.6957 19.9735 20.1745 19.9735C20.6532 19.9735 21.1114 19.7793 21.4445 19.4355C22.1467 18.7138 22.1467 17.5641 21.4445 16.8425L8.10745 3.23047C7.44085 2.54407 6.52477 2.15675 5.56795 2.15675C4.61113 2.15675 3.69506 2.54407 3.02845 3.23047C1.62597 4.67467 1.62597 6.97226 3.02845 8.41647L16.9985 22.6835C17.9984 23.7138 19.3731 24.2953 20.809 24.2953C22.2448 24.2953 23.6195 23.7138 24.6195 22.6835C26.7245 20.5169 26.7245 17.069 24.6195 14.9025L11.9185 1.93547C11.5658 1.57387 11.5658 0.997063 11.9185 0.635468C12.0853 0.464046 12.3143 0.367344 12.5535 0.367344C12.7926 0.367344 13.0217 0.464046 13.1885 0.635468L25.8895 13.6055C28.6952 16.4943 28.6952 21.0906 25.8895 23.9795Z" fill="#6F3C96"/>
</svg>
