<svg width="32" height="30" viewBox="0 0 32 30" fill="none" xmlns="http://www.w3.org/2000/svg">
<path fill-rule="evenodd" clip-rule="evenodd" d="M31.1163 23.6627L29.3473 18.5147C31.273 14.5603 31.0472 9.89649 28.7485 6.14663C26.4497 2.39677 22.396 0.0796063 17.9983 0.00168544C14.5802 -0.0536173 11.2806 1.25399 8.82834 3.63573C6.37605 6.01748 4.97272 9.27743 4.92825 12.6957C1.36167 15.3695 0.171624 20.1853 2.08225 24.2127L0.864253 27.7577C0.688872 28.2684 0.770467 28.8324 1.08341 29.2724C1.39636 29.7125 1.90226 29.9747 2.44225 29.9767C2.62909 29.9766 2.81461 29.9456 2.99125 29.8847L6.53725 28.6667C7.7907 29.2581 9.15929 29.5654 10.5453 29.5667H10.5603C13.5531 29.5678 16.3659 28.1376 18.1283 25.7187C19.9725 25.6704 21.7849 25.2271 23.4433 24.4187L28.5893 26.1887C28.799 26.2613 29.0193 26.2984 29.2413 26.2987C29.8828 26.296 30.4838 25.9843 30.8556 25.4615C31.2274 24.9386 31.3244 24.2686 31.1163 23.6617V23.6627ZM10.5583 27.7627H10.5463C9.31915 27.7606 8.11089 27.4607 7.02525 26.8887C6.80391 26.7717 6.54406 26.7515 6.30725 26.8327L2.67225 28.0767L3.92125 24.4407C4.0026 24.2039 3.98233 23.944 3.86525 23.7227C2.34425 20.8415 2.84077 17.3098 5.09725 14.9597C6.0194 20.4508 10.3575 24.7325 15.8603 25.5827C14.4482 26.9774 12.543 27.759 10.5583 27.7577V27.7627ZM29.1773 24.4797C29.2405 24.5045 29.3124 24.4878 29.3583 24.4377L29.3603 24.4337C29.4119 24.3884 29.4298 24.3158 29.4053 24.2517L27.5113 18.7407C27.4299 18.5039 27.4502 18.244 27.5673 18.0227C29.3591 14.625 29.2587 10.5408 27.302 7.23531C25.3453 3.92984 21.8129 1.87714 17.9723 1.81369C14.979 1.76426 12.0937 2.93133 9.9766 5.0479C7.85947 7.16446 6.69163 10.0494 6.74025 13.0427C6.86396 19.0664 11.7703 23.8915 17.7953 23.9147H17.8123C19.6043 23.9114 21.3689 23.4732 22.9543 22.6377C23.1756 22.5206 23.4355 22.5003 23.6723 22.5817L29.1773 24.4797Z" fill="#BDBDBD"/>
</svg>
