<svg width="51" height="43" viewBox="0 0 51 43" fill="none" xmlns="http://www.w3.org/2000/svg">
<path d="M40.6285 22.077C40.6547 20.1334 40.2806 18.2052 39.5295 16.4124C38.7784 14.6195 37.6663 13.0005 36.2625 11.656C34.8894 10.226 33.2356 9.09515 31.4048 8.33454C29.574 7.57392 27.6057 7.19993 25.6235 7.23603C25.3325 7.23603 25.0675 7.24501 24.8325 7.26401C24.5592 7.24601 24.2772 7.23669 23.9865 7.23603C22.0046 7.20328 20.0372 7.57879 18.2067 8.33921C16.3762 9.09962 14.7218 10.2286 13.3465 11.656C12.641 12.3578 12.0032 13.1246 11.4415 13.946L7.9985 0.970004C7.92546 0.691667 7.76212 0.445439 7.5341 0.2699C7.30608 0.0943609 7.02626 -0.000568829 6.73849 2.56443e-06H1.3045C0.958529 2.56443e-06 0.626721 0.137441 0.38208 0.382083C0.137439 0.626724 0 0.958532 0 1.30451C0 1.65048 0.137439 1.98229 0.38208 2.22693C0.626721 2.47157 0.958529 2.60901 1.3045 2.60901H5.7355L9.69749 17.542L12.2135 27.023C12.8445 29.061 14.3325 32.744 17.2915 35.023C16.7946 35.2624 16.3743 35.6356 16.0779 36.1007C15.7814 36.5659 15.6206 37.1045 15.6135 37.656C15.6489 38.4648 15.995 39.2287 16.5798 39.7885C17.1647 40.3483 17.943 40.6607 18.7525 40.6607C19.562 40.6607 20.3404 40.3483 20.9252 39.7885C21.51 39.2287 21.8561 38.4648 21.8915 37.656C21.8871 37.3617 21.8368 37.0699 21.7425 36.791C22.4868 36.8934 23.2372 36.9445 23.9885 36.944C24.2792 36.944 24.5612 36.935 24.8345 36.917C25.0705 36.935 25.3345 36.944 25.6255 36.944C26.2865 36.9402 26.9467 36.8968 27.6025 36.814C27.5128 37.0859 27.465 37.3698 27.4605 37.656C27.4959 38.4648 27.842 39.2287 28.4268 39.7885C29.0117 40.3483 29.79 40.6607 30.5995 40.6607C31.409 40.6607 32.1874 40.3483 32.7722 39.7885C33.357 39.2287 33.7031 38.4648 33.7385 37.656C33.7343 37.1977 33.6227 36.7468 33.4125 36.3395C33.2024 35.9323 32.8996 35.58 32.5285 35.311C33.9111 34.5818 35.1719 33.6419 36.2655 32.525C37.6734 31.1781 38.7877 29.5547 39.5385 27.7568C40.2893 25.9589 40.6604 24.0252 40.6285 22.077Z" fill="#94CA52"/>
<path d="M32.8157 22.1455L26.9348 25.5455L21.0527 28.9455V15.3555L26.9348 18.7555L32.8157 22.1455Z" fill="white"/>
<path d="M22.7578 42.1699H50.2578C50.2578 42.1699 34.7138 43.3649 22.7578 42.1699Z" fill="#94CA52"/>
<path d="M7.30273 40.6484H34.8027C34.8027 40.6484 19.2567 41.8434 7.30273 40.6484Z" fill="#94CA52"/>
</svg>
