<svg width="45" height="44" viewBox="0 0 45 44" fill="none" xmlns="http://www.w3.org/2000/svg">
<path d="M22.5 43.5C19.5284 43.5 16.6461 42.9311 13.9331 41.8091C11.3131 40.7256 8.96014 39.1744 6.93966 37.1988C4.91995 35.224 3.3344 32.9247 2.22707 30.3649C1.08107 27.7157 0.5 24.9013 0.5 22C0.5 19.0987 1.08107 16.2843 2.22707 13.6351C3.3344 11.0753 4.91995 8.77598 6.93966 6.80116C8.96015 4.82557 11.3131 3.27446 13.9331 2.19092C16.6461 1.06891 19.5284 0.5 22.5 0.5C25.4716 0.5 28.3539 1.06891 31.0669 2.19092C33.6869 3.27446 36.0398 4.82557 38.0603 6.80116C40.0801 8.77598 41.6656 11.0753 42.7729 13.6351C43.9189 16.2843 44.5 19.0987 44.5 22C44.5 24.9013 43.9189 27.7157 42.7729 30.3649C41.6656 32.9247 40.0801 35.224 38.0603 37.1988C36.0399 39.1744 33.6869 40.7256 31.0669 41.8091C28.3539 42.9311 25.4716 43.5 22.5 43.5Z" fill="white"/>
<path fill-rule="evenodd" clip-rule="evenodd" d="M45 22C45 9.84973 34.9264 0 22.5 0C10.0736 0 0 9.84973 0 22C0 34.1503 10.0736 44 22.5 44C34.9264 44 45 34.1503 45 22ZM14.1242 2.65296C16.7763 1.55614 19.5943 1 22.5 1C25.4057 1 28.2237 1.55614 30.8758 2.65296C33.4366 3.71198 35.7362 5.22792 37.7108 7.15866C39.6838 9.08787 41.2326 11.3336 42.314 13.8336C43.4328 16.4198 44 19.1674 44 22C44 24.8326 43.4328 27.5802 42.314 30.1664C41.2326 32.6663 39.6838 34.9121 37.7108 36.8413C35.7362 38.7721 33.4366 40.288 30.8758 41.347C28.2237 42.4439 25.4057 43 22.5 43C19.5943 43 16.7763 42.4439 14.1242 41.347C11.5634 40.288 9.26383 38.7721 7.28921 36.8413C5.31616 34.9121 3.7674 32.6663 2.68597 30.1664C1.56724 27.5802 1 24.8326 1 22C1 19.1674 1.56724 16.4198 2.68597 13.8336C3.7674 11.3336 5.31616 9.08787 7.28921 7.15866C9.26383 5.22792 11.5634 3.71198 14.1242 2.65296Z" fill="#6F3C96"/>
<ellipse cx="16" cy="17.5" rx="4" ry="4.5" fill="#6F3C96"/>
<ellipse cx="31" cy="17.5" rx="4" ry="4.5" fill="#6F3C96"/>
<path d="M8.52614 26.2532C8.67214 24.9582 11.8171 29.0462 23.8621 29.0462C35.9071 29.0462 39.5481 24.9402 39.6621 26.2532C39.7761 27.5662 36.2321 37.7212 23.8621 37.8932C11.4921 38.0652 8.38314 27.5482 8.52614 26.2532Z" fill="#6F3C96"/>
<path d="M10.3862 27.4801C10.5032 26.5661 13.3042 30.2211 23.9952 30.2211C34.6862 30.2211 38.0152 26.6351 38.0792 27.4801C38.1432 28.3251 34.9722 33.9461 23.9952 34.0551C13.0182 34.1641 10.2712 28.3941 10.3862 27.4801Z" fill="white"/>
</svg>
