<svg xmlns="http://www.w3.org/2000/svg" xmlns:xlink="http://www.w3.org/1999/xlink" version="1.1" width="256" height="256" viewBox="0 0 256 256" xml:space="preserve">
<desc>Created with Fabric.js 1.7.22</desc>
<defs>
</defs>
<g transform="translate(128 128) scale(0.72 0.72)" style="">
	<g style="stroke: none; stroke-width: 0; stroke-dasharray: none; stroke-linecap: butt; stroke-linejoin: miter; stroke-miterlimit: 10; fill: none; fill-rule: nonzero; opacity: 1;" transform="translate(-175.05 -175.05000000000004) scale(3.89 3.89)" >
	<path d="M 86 24.284 H 33.633 c -2.209 0 -4 -1.791 -4 -4 s 1.791 -4 4 -4 H 86 c 2.209 0 4 1.791 4 4 S 88.209 24.284 86 24.284 z" style="stroke: none; stroke-width: 1; stroke-dasharray: none; stroke-linecap: butt; stroke-linejoin: miter; stroke-miterlimit: 10; fill: rgb(193,193,193); fill-rule: nonzero; opacity: 1;" transform=" matrix(1 0 0 1 0 0) " stroke-linecap="round" />
	<path d="M 73.325 40.761 H 33.633 c -2.209 0 -4 -1.791 -4 -4 s 1.791 -4 4 -4 h 39.692 c 2.209 0 4 1.791 4 4 S 75.534 40.761 73.325 40.761 z" style="stroke: none; stroke-width: 1; stroke-dasharray: none; stroke-linecap: butt; stroke-linejoin: miter; stroke-miterlimit: 10; fill: rgb(193,193,193); fill-rule: nonzero; opacity: 1;" transform=" matrix(1 0 0 1 0 0) " stroke-linecap="round" />
	<path d="M 60.65 57.238 H 33.633 c -2.209 0 -4 -1.791 -4 -4 s 1.791 -4 4 -4 H 60.65 c 2.209 0 4 1.791 4 4 S 62.859 57.238 60.65 57.238 z" style="stroke: none; stroke-width: 1; stroke-dasharray: none; stroke-linecap: butt; stroke-linejoin: miter; stroke-miterlimit: 10; fill: rgb(193,193,193); fill-rule: nonzero; opacity: 1;" transform=" matrix(1 0 0 1 0 0) " stroke-linecap="round" />
	<path d="M 47.976 73.716 H 33.633 c -2.209 0 -4 -1.791 -4 -4 s 1.791 -4 4 -4 h 14.343 c 2.209 0 4 1.791 4 4 S 50.185 73.716 47.976 73.716 z" style="stroke: none; stroke-width: 1; stroke-dasharray: none; stroke-linecap: butt; stroke-linejoin: miter; stroke-miterlimit: 10; fill: rgb(193,193,193); fill-rule: nonzero; opacity: 1;" transform=" matrix(1 0 0 1 0 0) " stroke-linecap="round" />
	<path d="M 12.424 73.716 c -2.209 0 -4 -1.791 -4 -4 V 20.284 c 0 -2.209 1.791 -4 4 -4 s 4 1.791 4 4 v 49.432 C 16.424 71.925 14.633 73.716 12.424 73.716 z" style="stroke: none; stroke-width: 1; stroke-dasharray: none; stroke-linecap: butt; stroke-linejoin: miter; stroke-miterlimit: 10; fill: rgb(193,193,193); fill-rule: nonzero; opacity: 1;" transform=" matrix(1 0 0 1 0 0) " stroke-linecap="round" />
	<path d="M 12.424 73.716 c -1.023 0 -2.047 -0.391 -2.828 -1.172 L 1.172 64.12 c -1.563 -1.562 -1.563 -4.095 0 -5.656 c 1.563 -1.563 4.095 -1.563 5.657 0 l 5.596 5.595 l 5.595 -5.595 c 1.563 -1.563 4.095 -1.563 5.657 0 c 1.562 1.562 1.562 4.095 0 5.656 l -8.424 8.424 C 14.472 73.325 13.448 73.716 12.424 73.716 z" style="stroke: none; stroke-width: 1; stroke-dasharray: none; stroke-linecap: butt; stroke-linejoin: miter; stroke-miterlimit: 10; fill: rgb(193,193,193); fill-rule: nonzero; opacity: 1;" transform=" matrix(1 0 0 1 0 0) " stroke-linecap="round" />
</g>
</g>
</svg>