<svg width="69" height="66" viewBox="0 0 69 66" fill="none" xmlns="http://www.w3.org/2000/svg">
<path d="M34.5 0C53.14 0 68.25 14.775 68.25 33C68.25 51.225 53.14 66 34.5 66C15.86 66 0.75 51.225 0.75 33C0.75 14.775 15.86 0 34.5 0Z" fill="#94CA52"/>
<path d="M47.9168 31.0455C48.5263 31.4051 48.9004 32.0602 48.9004 32.768C48.9004 33.4757 48.5263 34.1308 47.9168 34.4905L27.4688 46.5575C26.8505 46.9221 26.0844 46.9274 25.4611 46.5716C24.8378 46.2157 24.453 45.5532 24.4528 44.8355V20.6985C24.4537 19.9811 24.8388 19.3192 25.462 18.9638C26.0851 18.6085 26.8509 18.614 27.4688 18.9785L47.9168 31.0455Z" fill="white"/>
</svg>
