<svg width="38" height="29" viewBox="0 0 38 29" fill="none" xmlns="http://www.w3.org/2000/svg">
<path fill-rule="evenodd" clip-rule="evenodd" d="M0.397079 13.9851C3.03785 5.96426 10.4863 0.510061 18.9301 0.414062C27.3731 0.510911 34.8205 5.96494 37.4611 13.9851C37.5439 14.2285 37.5439 14.4926 37.4611 14.7361C34.8201 22.7561 27.3722 28.2098 18.9291 28.3061C10.4859 28.2098 3.03808 22.7561 0.397079 14.7361C0.314255 14.4926 0.314255 14.2285 0.397079 13.9851ZM2.73008 14.3601C5.15693 21.2492 11.6266 25.8906 18.9301 25.9821C26.2336 25.8906 32.7032 21.2492 35.1301 14.3601C32.7032 7.47092 26.2336 2.82957 18.9301 2.73806C11.6266 2.82957 5.15693 7.47092 2.73008 14.3601Z" fill="#BDBDBD"/>
<path fill-rule="evenodd" clip-rule="evenodd" d="M11.96 14.3597C11.96 10.5086 15.0819 7.38672 18.933 7.38672C22.7822 7.39113 25.9016 10.5105 25.906 14.3597C25.906 18.2108 22.784 21.3327 18.933 21.3327C15.0819 21.3327 11.96 18.2108 11.96 14.3597ZM14.284 14.3597C14.284 16.9273 16.3654 19.0087 18.933 19.0087C21.4996 19.0065 23.5798 16.9264 23.582 14.3597C23.582 11.7921 21.5005 9.71072 18.933 9.71072C16.3654 9.71072 14.284 11.7921 14.284 14.3597Z" fill="#BDBDBD"/>
</svg>
